<?xml version="1.0" encoding="UTF-8"?>
<svg version="1.1" xmlns="http://www.w3.org/2000/svg" width="1920" height="1080">
<path d="M0 0 C0.97812653 0.00182281 1.95625305 0.00364563 2.96401978 0.00552368 C18.77968079 0.05491394 34.24007159 0.74385092 49.875 3.3125 C50.94089355 3.48410645 52.00678711 3.65571289 53.10498047 3.83251953 C125.11764468 15.76531551 195.07631713 52.405112 242.875 108.3125 C243.79034972 109.34361851 244.70710815 110.37348757 245.625 111.40234375 C292.73634298 164.66202402 323.56530891 238.12430918 324.11328125 309.57421875 C324.12302979 310.63081696 324.13277832 311.68741516 324.14282227 312.77603149 C324.31254159 335.9433552 324.16115076 358.48332831 319.875 381.3125 C319.68776367 382.33891602 319.50052734 383.36533203 319.30761719 384.42285156 C309.50351584 436.82992179 286.94772842 486.31525868 253.24023438 527.63867188 C252.35889921 528.71922157 251.48223604 529.80360671 250.61132812 530.89257812 C243.57196841 539.66706862 235.73764506 547.65805485 227.8125 555.625 C227.05231064 556.3930899 227.05231064 556.3930899 226.27676392 557.17669678 C219.48160921 564.02637533 212.4596977 570.32831618 204.875 576.3125 C203.42683945 577.48537603 201.97890643 578.65853306 200.53125 579.83203125 C185.32026583 591.95785378 169.01652255 602.14560679 151.875 611.3125 C150.95533447 611.8062915 150.95533447 611.8062915 150.01708984 612.31005859 C114.98990348 630.92894588 76.94358297 641.40755642 37.875 647.3125 C37.12395996 647.43109375 36.37291992 647.5496875 35.59912109 647.671875 C-39.9139795 659.19692692 -125.31415386 634.19077376 -186.62109375 590.1328125 C-190.51536479 587.26779653 -194.3368206 584.31598509 -198.125 581.3125 C-199.14078125 580.50941406 -200.1565625 579.70632813 -201.203125 578.87890625 C-206.55748178 574.56401259 -211.71215659 570.05852179 -216.79296875 565.42578125 C-218.87534736 563.53873463 -220.99003064 561.70191767 -223.125 559.875 C-230.71184858 553.25375033 -237.61475674 545.981917 -244.125 538.3125 C-244.92292969 537.40371094 -245.72085938 536.49492188 -246.54296875 535.55859375 C-301.64230235 472.37491389 -328.86798486 387.66274491 -323.90234375 304.29492188 C-318.00275955 219.91424926 -280.869026 142.03517934 -219.125 84.3125 C-216.41479038 81.96290812 -213.6601395 79.70226867 -210.84765625 77.4765625 C-208.00433895 75.21659437 -205.25753964 72.8636054 -202.5 70.5 C-160.99322097 36.04354231 -109.60729544 14.17252259 -56.8125 4.5 C-55.22405273 4.2074231 -55.22405273 4.2074231 -53.60351562 3.90893555 C-35.81813708 0.84886776 -18.01824109 -0.07037396 0 0 Z " fill="#CEE9EF" transform="translate(963.125,88.6875)"/>
<path d="M0 0 C7.20877339 3.24232686 12.93973207 8.34928034 15.82421875 15.88671875 C17.08763205 21.87740346 17.70511445 29.16848441 15.015625 34.76953125 C13.25722614 37.15792335 11.4023055 39.27593629 9.35546875 41.421875 C-25.41877496 79.62852788 -42.9775135 127.70169597 -40.70703125 179.109375 C-39.71097122 193.65307359 -37.81959292 208.10314682 -33.70703125 222.109375 C-33.47532227 222.90585449 -33.24361328 223.70233398 -33.00488281 224.52294922 C-26.93143339 244.94365271 -18.06227027 263.74131271 -5.70703125 281.109375 C-5.28373535 281.70766113 -4.86043945 282.30594727 -4.42431641 282.92236328 C6.58748229 298.24331219 20.23800032 312.12478611 36.29296875 322.109375 C36.87771973 322.47933594 37.4624707 322.84929687 38.06494141 323.23046875 C53.68553018 332.97279441 71.4858694 340.46901407 89.29296875 345.109375 C91.12408203 345.61017578 91.12408203 345.61017578 92.9921875 346.12109375 C106.08371262 349.61681295 119.73887817 352.38705669 133.29296875 353.109375 C134.80503906 353.20605469 134.80503906 353.20605469 136.34765625 353.3046875 C181.84046994 354.82449197 232.48523832 335.35455835 265.63720703 304.67919922 C299.6986717 272.38559589 318.74455843 223.56569074 320.39794922 177.16308594 C321.73061657 124.20404439 303.14613712 79.18975417 268.13867188 39.68823242 C263.30836835 34.18376568 262.9961487 30.36575721 263.08203125 23.24609375 C263.61106164 15.37921595 266.40883461 9.3900082 272.29296875 4.109375 C278.69150737 -0.53768726 285.52638625 -1.81327645 293.29296875 -0.890625 C296.0428221 0.22177522 298.29142834 1.78731796 300.66796875 3.546875 C301.31080811 3.9998999 301.95364746 4.4529248 302.6159668 4.91967773 C308.39597386 9.04558299 313.92802511 13.45754597 319.29296875 18.109375 C320.07542969 18.78097656 320.85789062 19.45257813 321.6640625 20.14453125 C334.07831337 31.05031814 345.64045967 42.67525522 355.29296875 56.109375 C355.76798828 56.76711914 356.24300781 57.42486328 356.73242188 58.10253906 C381.39657878 92.66160477 397.27498563 134.25133879 397.49609375 177.015625 C397.50310806 177.93020477 397.51012238 178.84478455 397.51734924 179.78707886 C397.53477014 182.72789487 397.54120302 185.66850926 397.54296875 188.609375 C397.54398087 190.11869598 397.54398087 190.11869598 397.54501343 191.6585083 C397.47861813 254.01175635 378.1046864 312.49944316 335.453125 358.76171875 C334.02201326 360.31704995 332.61259212 361.89264412 331.2265625 363.48828125 C321.3300933 374.8427938 310.0804975 384.70176401 298.07714844 393.76220703 C296.87873241 394.66708657 295.68410675 395.57700612 294.49316406 396.49169922 C261.05133071 422.16158581 219.78686085 438.31823063 178.29296875 445.109375 C177.58011719 445.22796875 176.86726563 445.3465625 176.1328125 445.46875 C144.49751208 450.43578782 111.4950525 446.99591394 80.29296875 441.109375 C80.29296875 440.449375 80.29296875 439.789375 80.29296875 439.109375 C79.06578125 439.02429688 77.83859375 438.93921875 76.57421875 438.8515625 C70.37843186 438.15320743 64.67704084 436.23172837 58.79296875 434.234375 C57.02759766 433.63761963 57.02759766 433.63761963 55.2265625 433.02880859 C23.55280546 422.07426188 -4.57315989 406.25947671 -29.70703125 384.109375 C-30.465 383.45066406 -31.22296875 382.79195312 -32.00390625 382.11328125 C-33.29997133 380.98550369 -34.5919958 379.85305657 -35.87890625 378.71484375 C-37.14850646 377.59987433 -38.43078039 376.49923764 -39.72265625 375.41015625 C-43.76075367 371.98085596 -47.32747782 368.42401062 -50.74609375 364.37890625 C-53.05089765 361.71139416 -55.47390419 359.17218789 -57.89453125 356.609375 C-69.53326958 344.03118694 -78.93634867 329.78452525 -87.70703125 315.109375 C-88.08311523 314.48272949 -88.45919922 313.85608398 -88.84667969 313.21044922 C-105.07438608 285.73000933 -112.67747926 254.46317717 -116.70703125 223.109375 C-116.8241748 222.26890625 -116.94131836 221.4284375 -117.06201172 220.5625 C-121.55610797 188.29582376 -118.55417386 155.36485254 -109.70703125 124.109375 C-109.4764502 123.2932373 -109.24586914 122.47709961 -109.00830078 121.63623047 C-95.15872814 74.01260922 -63.33616416 34.03611788 -23.70703125 5.109375 C-22.74152344 4.39652344 -21.77601563 3.68367188 -20.78125 2.94921875 C-14.03308913 -1.60336825 -7.80388745 -2.56751275 0 0 Z " fill="#012E5E" transform="translate(822.70703125,290.890625)"/>
<path d="M0 0 C21.63885542 -0.75016041 41.46284885 6.68537033 57.61328125 21.17578125 C75.27515845 37.71063084 87.05146056 61.2250942 88.34326172 85.53881836 C89.20971127 112.75125409 82.88433738 139.59403458 64.21875 160.1953125 C63.48140625 161.02546875 62.7440625 161.855625 61.984375 162.7109375 C47.50286874 178.13894744 27.67293507 187.42499863 6.58984375 188.35546875 C-16.40669033 189.01412101 -35.83694579 180.49984534 -52.78125 165.1953125 C-64.85920983 153.46913791 -72.44057099 138.8897757 -77.53125 123.0078125 C-77.74225342 122.35449951 -77.95325684 121.70118652 -78.1706543 121.02807617 C-85.73918647 96.37211519 -81.42735964 68.591297 -69.8828125 46.00390625 C-67.01549863 40.66508961 -63.64052422 35.86319656 -59.78125 31.1953125 C-59.09417969 30.34582031 -58.40710938 29.49632812 -57.69921875 28.62109375 C-45.56668583 14.3462397 -27.46802178 3.21683276 -8.71875 0.5078125 C-5.81535539 0.27267843 -2.90919216 0.15026819 0 0 Z " fill="#012E5E" transform="translate(958.78125,421.8046875)"/>
<path d="M0 0 C12.98000025 6.46414355 24.53287825 17.18413008 35.9609375 25.9765625 C37.16249489 26.89748196 38.36427971 27.81810485 39.56640625 28.73828125 C51.65587905 38.00840932 63.67063144 47.3764785 75.64135742 56.79931641 C82.61261343 62.28277402 89.62026644 67.71943949 96.62451172 73.16064453 C98.96810803 74.98213558 101.31043177 76.80525027 103.65234375 78.62890625 C112.97327735 85.88968141 112.97327735 85.88968141 122.33203125 93.1015625 C123.9035629 94.30753403 125.46947253 95.52082091 127.03515625 96.734375 C128.9955092 98.23670156 130.97790237 99.71067168 132.98046875 101.15625 C133.90214844 101.83945312 134.82382813 102.52265625 135.7734375 103.2265625 C136.58425781 103.80921875 137.39507813 104.391875 138.23046875 104.9921875 C139.9609375 106.9765625 139.9609375 106.9765625 140.48046875 109.94921875 C139.82752306 113.75397747 138.77951701 114.7173895 135.8359375 117.1640625 C134.918125 117.93621094 134.0003125 118.70835937 133.0546875 119.50390625 C128.63584857 123.03562979 124.20773448 126.55200691 119.73828125 130.01953125 C115.74080625 133.13100577 111.81935363 136.33202417 107.8984375 139.5390625 C102.83112419 143.66991765 97.74465509 147.77267921 92.5859375 151.7890625 C91.54695313 152.59988281 90.50796875 153.41070312 89.4375 154.24609375 C86.9609375 155.9765625 86.9609375 155.9765625 84.9609375 155.9765625 C84.48785156 154.76742187 84.01476563 153.55828125 83.52734375 152.3125 C73.00120364 126.01198286 56.83047925 104.53793724 30.63671875 92.44140625 C11.98386195 84.72375862 -11.68281221 84.29796057 -30.6640625 91.2265625 C-56.22473909 101.83087197 -72.57444862 120.92879363 -83.15356445 146.15551758 C-84.48519316 149.41583026 -85.77399979 152.68984008 -87.0390625 155.9765625 C-91.47283544 154.07205549 -94.41109017 150.89192586 -97.8203125 147.55859375 C-99.85768408 145.74449961 -99.85768408 145.74449961 -102.02978516 146.14697266 C-104.60833556 147.21160379 -105.12523347 148.2152208 -106.40625 150.66796875 C-106.81423828 151.44035889 -107.22222656 152.21274902 -107.64257812 153.00854492 C-108.06216797 153.84361572 -108.48175781 154.67868652 -108.9140625 155.5390625 C-109.57051758 156.81777222 -109.57051758 156.81777222 -110.24023438 158.12231445 C-117.26683516 172.08599691 -125.1504649 188.6644864 -121.421875 204.6171875 C-118.4927115 212.86032018 -112.87672187 219.45581701 -106.4765625 225.2890625 C-105.27 226.619375 -105.27 226.619375 -104.0390625 227.9765625 C-104.3199731 231.85185188 -105.72923815 234.52427056 -107.8515625 237.7265625 C-108.35300781 238.50515625 -108.85445312 239.28375 -109.37109375 240.0859375 C-111.23914151 242.20334995 -112.2841695 242.6180081 -115.0390625 242.9765625 C-128.27689774 225.38969782 -130.41381024 208.80752552 -127.52636719 187.12695312 C-124.95512101 172.03871096 -121.18723919 157.24198756 -115.8984375 142.87890625 C-115.03705778 139.969792 -114.59072494 137.97544264 -115.0390625 134.9765625 C-116.50071645 133.01325649 -116.50071645 133.01325649 -118.6640625 131.3515625 C-119.47101562 130.67609375 -120.27796875 130.000625 -121.109375 129.3046875 C-125.19260713 126.05987904 -129.28429935 122.82483328 -133.42822266 119.65771484 C-137.16029133 116.7836404 -138.75845119 115.53551425 -139.6015625 110.8515625 C-138.57569292 103.78446093 -131.97614393 99.5836259 -126.515625 95.40625 C-124.90283101 94.21538095 -123.28546828 93.03067948 -121.6640625 91.8515625 C-119.88966919 90.54035497 -118.11625191 89.22782572 -116.34375 87.9140625 C-115.45655273 87.25792969 -114.56935547 86.60179687 -113.65527344 85.92578125 C-103.16075311 78.10679559 -92.93015429 69.94269546 -82.7980957 61.66186523 C-77.99627883 57.74007215 -73.14390442 53.88940662 -68.2590332 50.07177734 C-63.97159575 46.71850831 -59.71987793 43.32292976 -55.4765625 39.9140625 C-43.33105012 30.17934667 -30.91002571 20.84566775 -18.33984375 11.66748047 C-16.16468692 10.06888791 -14.00634021 8.45012467 -11.8515625 6.82421875 C-10.60178548 5.89553318 -9.35179944 4.96712881 -8.1015625 4.0390625 C-7.54090088 3.60787109 -6.98023926 3.17667969 -6.40258789 2.73242188 C-2.63759879 -0.03031723 -2.63759879 -0.03031723 0 0 Z " fill="#022F5E" transform="translate(963.0390625,319.0234375)"/>
<path d="M0 0 C30 0 30 0 36.48828125 5.4296875 C37.91727936 7.92288036 39.12648117 10.28227485 40.3125 12.875 C41.02114034 14.1896265 41.74187373 15.49779818 42.47387695 16.79956055 C43.97045676 19.48390406 45.40884151 22.18887635 46.81347656 24.92236328 C50.27359902 31.53114602 54.53545452 37.62693871 58.6875 43.8125 C61.100625 47.504375 63.51375 51.19625 66 55 C66.33 36.85 66.66 18.7 67 0 C77.23 0 87.46 0 98 0 C98 38.94 98 77.88 98 118 C88.76 118 79.52 118 70 118 C61.15570934 105.83910035 61.15570934 105.83910035 57.75 100.1875 C49.59580503 86.85740312 40.69101807 73.97858698 32 61 C31.67 79.81 31.34 98.62 31 118 C20.77 118 10.54 118 0 118 C0 79.06 0 40.12 0 0 Z " fill="#012E5E" transform="translate(998,803)"/>
<path d="M0 0 C10.56 0 21.12 0 32 0 C36.49925421 11.24813552 36.49925421 11.24813552 38.12792969 15.92895508 C38.49695908 16.98572449 38.86598846 18.0424939 39.24620056 19.13128662 C39.82815941 20.80846771 39.82815941 20.80846771 40.421875 22.51953125 C41.0620811 24.3545752 41.70228937 26.1896184 42.34258938 28.02462959 C43.01775653 29.9608069 43.69186489 31.89734967 44.3656311 33.83401489 C46.70659928 40.56282371 49.05378257 47.28946316 51.40234375 54.015625 C51.75580148 55.02823993 51.75580148 55.02823993 52.11639977 56.06131172 C55.35620507 65.34003849 58.62892147 74.60628467 61.94140625 83.859375 C62.31810455 84.91255417 62.69480286 85.96573334 63.08291626 87.05082703 C64.84080202 91.96242989 66.60452746 96.87183782 68.37597656 101.77856445 C68.99689308 103.50987521 69.6176702 105.24123597 70.23828125 106.97265625 C70.66325645 108.14021454 70.66325645 108.14021454 71.09681702 109.33135986 C72.17534605 112.35100962 73 114.76748916 73 118 C62.11 118 51.22 118 40 118 C39.01 115.091875 38.02 112.18375 37 109.1875 C36.68675781 108.27508545 36.37351562 107.3626709 36.05078125 106.42260742 C35.80714844 105.69920166 35.56351563 104.9757959 35.3125 104.23046875 C35.06113281 103.49207764 34.80976562 102.75368652 34.55078125 101.99291992 C34 100 34 100 34 97 C22.12 97 10.24 97 -2 97 C-2.99 100.63 -3.98 104.26 -5 108 C-5.99 111.3 -6.98 114.6 -8 118 C-18.89 118 -29.78 118 -41 118 C-33.06354888 93.85530365 -24.7051545 69.88814622 -16.17987061 45.94616699 C-12.57119554 35.80722497 -9.00031031 25.65513356 -5.4375 15.5 C-4.87777274 13.9052714 -4.31803987 12.31054476 -3.75830078 10.71582031 C-2.50477019 7.14414726 -1.25240241 3.5720695 0 0 Z M15 42 C13.71454512 45.94981082 12.43289614 49.90083381 11.15478516 53.85302734 C10.71931109 55.19776866 10.28279245 56.54217217 9.84521484 57.88623047 C9.21698473 59.81650666 8.59250246 61.74796046 7.96875 63.6796875 C7.40317383 65.42354736 7.40317383 65.42354736 6.82617188 67.20263672 C5.90558511 69.83354697 5.90558511 69.83354697 6 72 C12.6 72 19.2 72 26 72 C24.71262168 67.74865764 23.4202961 63.49892977 22.125 59.25 C21.57779297 57.44015625 21.57779297 57.44015625 21.01953125 55.59375 C20.66503906 54.43359375 20.31054688 53.2734375 19.9453125 52.078125 C19.62062988 51.00981445 19.29594727 49.94150391 18.96142578 48.84082031 C18.14010476 46.41398147 17.21836505 44.2471013 16 42 C15.67 42 15.34 42 15 42 Z " fill="#012E5E" transform="translate(629,803)"/>
<path d="M0 0 C10.56 0 21.12 0 32 0 C40.45781219 23.5267527 48.80158706 47.0885187 56.96551514 70.71899414 C61.43606802 83.65848431 65.93054887 96.58428507 70.66552734 109.42993164 C71.1423999 110.73111938 71.1423999 110.73111938 71.62890625 112.05859375 C71.89775635 112.78361084 72.16660645 113.50862793 72.44360352 114.25561523 C73 116 73 116 73 118 C62.11 118 51.22 118 40 118 C39.01 115.091875 38.02 112.18375 37 109.1875 C36.68675781 108.27508545 36.37351562 107.3626709 36.05078125 106.42260742 C35.80714844 105.69920166 35.56351563 104.9757959 35.3125 104.23046875 C35.06113281 103.49207764 34.80976562 102.75368652 34.55078125 101.99291992 C34 100 34 100 34 97 C22.12 97.33 10.24 97.66 -2 98 C-3.93297598 104.20682726 -3.93297598 104.20682726 -5.85913086 110.41577148 C-6.10026611 111.18477783 -6.34140137 111.95378418 -6.58984375 112.74609375 C-6.83597412 113.53685303 -7.08210449 114.3276123 -7.33569336 115.14233398 C-8 117 -8 117 -9 118 C-11.3756852 118.0883967 -13.72208674 118.11530305 -16.09765625 118.09765625 C-17.16094398 118.09553383 -17.16094398 118.09553383 -18.24571228 118.09336853 C-20.51801712 118.08775443 -22.79022475 118.07519963 -25.0625 118.0625 C-26.59960796 118.05748681 -28.13671745 118.05292359 -29.67382812 118.04882812 C-33.44925642 118.03778042 -37.22461171 118.02050641 -41 118 C-38.30162295 108.5123509 -35.06828546 99.2041439 -31.875 89.875 C-31.5764209 89.00093506 -31.2778418 88.12687012 -30.97021484 87.22631836 C-24.08215532 67.07538907 -16.96908509 47.00436384 -9.82400513 26.94338989 C-8.2757111 22.59524497 -6.73239549 18.24550123 -5.203125 13.890625 C-4.9249292 13.09885864 -4.6467334 12.30709229 -4.36010742 11.49133301 C-3.84347907 10.01932965 -3.32794622 8.54694116 -2.8137207 7.07409668 C-1.10980803 2.21961605 -1.10980803 2.21961605 0 0 Z M15 41 C13.71265593 44.93088838 12.43107158 48.86360274 11.15478516 52.7980957 C10.71984046 54.13617501 10.28332791 55.47374574 9.84521484 56.81079102 C9.21559861 58.73319069 8.59209157 60.65758784 7.96875 62.58203125 C7.59169922 63.73936768 7.21464844 64.8967041 6.82617188 66.08911133 C5.86348151 68.97669166 5.86348151 68.97669166 6 72 C12.27 72 18.54 72 25 72 C23.68867258 64.70160193 21.79459687 57.87806086 19.375 50.875 C19.05015625 49.91851563 18.7253125 48.96203125 18.390625 47.9765625 C17.59928341 45.64908723 16.80235801 43.3236955 16 41 C15.67 41 15.34 41 15 41 Z " fill="#012E5E" transform="translate(908,803)"/>
<path d="M0 0 C10.56 0 21.12 0 32 0 C33.02996094 2.9803125 34.05992188 5.960625 35.12109375 9.03125 C36.55895609 13.18782558 37.99805848 17.34397105 39.4375 21.5 C39.81493347 22.58978149 40.19236694 23.67956299 40.58123779 24.80236816 C47.03366411 43.42231438 53.57792297 62.00841768 60.20092773 80.56835938 C64.62790128 92.99549746 68.86365007 105.4727688 73 118 C62.11 118 51.22 118 40 118 C37 111 37 111 33 98 C21.12 97.67 9.24 97.34 -3 97 C-3.66 99.97 -4.32 102.94 -5 106 C-6.32 109.96 -7.64 113.92 -9 118 C-19.56 118 -30.12 118 -41 118 C-39.87519575 111.25117451 -39.87519575 111.25117451 -38.62744141 107.78540039 C-38.34779037 107.00036133 -38.06813934 106.21532227 -37.78001404 105.40649414 C-37.47362503 104.56207764 -37.16723602 103.71766113 -36.8515625 102.84765625 C-36.52700577 101.93935059 -36.20244904 101.03104492 -35.86805725 100.09521484 C-35.16186789 98.11970887 -34.45351524 96.14497518 -33.74325562 94.17092896 C-31.81672435 88.81572619 -29.90594053 83.45492176 -27.99609375 78.09375 C-27.59350845 76.96429459 -27.19092316 75.83483917 -26.77613831 74.67115784 C-23.72853196 66.10017 -20.74228504 57.50878367 -17.78515625 48.90625 C-17.35773132 47.66354843 -16.9303064 46.42084686 -16.4899292 45.14048767 C-14.80737624 40.24448422 -13.12654797 35.34791426 -11.45318604 30.44876099 C-10.2884809 27.03892455 -9.11910925 23.63071639 -7.94921875 20.22265625 C-7.60818619 19.21831543 -7.26715363 18.21397461 -6.91578674 17.17919922 C-6.42706337 15.75837036 -6.42706337 15.75837036 -5.9284668 14.30883789 C-5.65109177 13.49653214 -5.37371674 12.68422638 -5.0879364 11.8473053 C-3.55391275 7.8325176 -1.74553327 3.92744986 0 0 Z M15 41 C13.57394387 45.25351581 12.14982921 49.50767504 10.72753906 53.76245117 C10.24305159 55.21087362 9.75802668 56.65911641 9.27246094 58.10717773 C8.57607118 60.18426676 7.88159395 62.26198659 7.1875 64.33984375 C6.76855469 65.59144287 6.34960938 66.84304199 5.91796875 68.13256836 C4.94918443 70.65693345 4.94918443 70.65693345 5 72 C11.6 72 18.2 72 25 72 C22.54109945 61.48136988 19.32062457 51.27351809 16 41 C15.67 41 15.34 41 15 41 Z " fill="#012E5E" transform="translate(1263,803)"/>
<path d="M0 0 C29.04 0 58.08 0 88 0 C88 27.47013282 88 27.47013282 78.7109375 37.70703125 C74.98040766 41.96201481 71.7015451 46.44484058 68.4375 51.0625 C67.35925314 52.55814322 66.27983046 54.0529395 65.19921875 55.546875 C62.02760439 59.95334317 58.88196718 64.37778013 55.75 68.8125 C55.30325928 69.44486572 54.85651855 70.07723145 54.39624023 70.72875977 C49.89082926 77.12535103 45.45391737 83.5665638 41 90 C64.265 90.495 64.265 90.495 88 91 C88 99.91 88 108.82 88 118 C58.3 118 28.6 118 -2 118 C-2 91.49197315 -2 91.49197315 7.359375 80.41015625 C10.1874848 76.98975265 12.90105218 73.51887503 15.54663086 69.95581055 C16.51421444 68.65372554 17.48899697 67.35695884 18.47094727 66.06567383 C22.93353136 60.19107446 27.0921749 54.12452155 31.19726562 47.99609375 C35.59358582 41.46735817 40.25295197 35.32939737 45 29 C30.15 28.67 15.3 28.34 0 28 C0 18.76 0 9.52 0 0 Z " fill="#012E5E" transform="translate(1120,803)"/>
<path d="M0 0 C2.73456228 3.36263825 4.65562844 7.02078616 6.57421875 10.8828125 C6.90291458 11.53829071 7.23161041 12.19376892 7.57026672 12.86911011 C8.26048116 14.24818326 8.94869299 15.62826032 9.63500977 17.00927734 C10.68885218 19.12771816 11.75120873 21.24173399 12.81445312 23.35546875 C13.48488851 24.69766029 14.1548279 26.04009972 14.82421875 27.3828125 C15.14291428 28.01615509 15.4616098 28.64949768 15.78996277 29.30203247 C18 33.77004717 18 33.77004717 18 36 C19.10601563 35.97164062 20.21203125 35.94328125 21.3515625 35.9140625 C26.4361387 35.91629945 31.35542943 36.61842704 36.375 37.375 C37.69757813 37.56449219 37.69757813 37.56449219 39.046875 37.7578125 C45.07495313 38.64169492 51.03759057 39.74973972 57 41 C55.5950955 44.22515663 53.94874814 46.23554082 51.3671875 48.609375 C50.64273438 49.28226563 49.91828125 49.95515625 49.171875 50.6484375 C48.41390625 51.34195313 47.6559375 52.03546875 46.875 52.75 C44.65003922 54.80320942 42.42940474 56.85964135 40.22558594 58.93554688 C38.72269323 60.32962989 37.18799882 61.69008409 35.62597656 63.01757812 C33.49676782 64.91412191 31.66247904 66.68310118 30 69 C29.85472024 72.30600043 30.13233493 73.9226897 31 77 C31.41011763 79.16815748 31.80595598 81.33904035 32.19140625 83.51171875 C32.87858408 87.12687167 33.57276456 90.74057597 34.27148438 94.35351562 C34.49255859 95.51947266 34.71363281 96.68542969 34.94140625 97.88671875 C35.24606812 99.46779419 35.24606812 99.46779419 35.55688477 101.08081055 C35.96630901 103.77804785 36.08502919 106.27812467 36 109 C34.42474388 108.22214939 32.85000593 107.44323804 31.27734375 106.66015625 C29.86319198 105.95968855 28.4450711 105.26718679 27.0234375 104.58203125 C22.93620875 102.58430113 19.07679193 100.4551058 15.26953125 97.9609375 C7.6671524 92.75493262 7.6671524 92.75493262 -1.09375 91.20166016 C-5.45155998 92.57517888 -9.08772464 95.07259338 -12.8359375 97.62744141 C-16.84379944 100.16943146 -21.18982512 102.03239874 -25.5 104 C-27.13629581 104.76896535 -28.77179282 105.53963428 -30.40625 106.3125 C-31.5921875 106.869375 -32.778125 107.42625 -34 108 C-34.24801448 101.27960761 -33.29870303 95.09593448 -32.0625 88.5 C-31.52174088 85.55353157 -30.98560891 82.60822787 -30.48852539 79.65405273 C-30 77 -30 77 -29.36889648 74.80102539 C-28.71015141 72.53951002 -28.71015141 72.53951002 -29 69 C-31.20837909 65.67056314 -33.99300679 63.11541357 -36.9375 60.4375 C-37.68580078 59.72142578 -38.43410156 59.00535156 -39.20507812 58.26757812 C-43.46148164 54.22454661 -47.84939137 50.36590829 -52.37329102 46.62524414 C-54.1221553 44.8779547 -55.02422639 43.25699345 -56 41 C-50.78367334 40.12183053 -45.56621898 39.25099365 -40.34716797 38.38916016 C-38.29454018 38.04883472 -36.24288686 37.70264239 -34.19140625 37.35546875 C-28.3764116 36.40342605 -22.8929131 35.76890537 -17 36 C-16.7417041 35.15743652 -16.4834082 34.31487305 -16.21728516 33.44677734 C-14.91544767 29.76058768 -13.29066766 26.32861794 -11.5234375 22.8515625 C-11.19332672 22.19417084 -10.86321594 21.53677917 -10.52310181 20.85946655 C-9.47750603 18.77938683 -8.4263553 16.70217356 -7.375 14.625 C-6.6610881 13.20721762 -5.9475427 11.78925062 -5.234375 10.37109375 C-3.49381428 6.91191323 -1.74826918 3.45529063 0 0 Z " fill="#DD9D2E" transform="translate(961,183)"/>
<path d="M0 0 C10.23 0 20.46 0 31 0 C31 29.7 31 59.4 31 90 C46.18 90 61.36 90 77 90 C77 99.24 77 108.48 77 118 C51.59 118 26.18 118 0 118 C0 79.06 0 40.12 0 0 Z " fill="#012E5E" transform="translate(720,803)"/>
<path d="M0 0 C10.23 0 20.46 0 31 0 C31 38.94 31 77.88 31 118 C20.77 118 10.54 118 0 118 C0 79.06 0 40.12 0 0 Z " fill="#012E5E" transform="translate(817,803)"/>
<path d="M0 0 C5.61 0 11.22 0 17 0 C17.01981934 1.17506104 17.03963867 2.35012207 17.06005859 3.56079102 C17.13643596 7.94251032 17.22510277 12.32391141 17.31738281 16.70532227 C17.35554025 18.59751071 17.39041567 20.48976842 17.421875 22.38208008 C17.46781423 25.11043972 17.52575965 27.83832793 17.5859375 30.56640625 C17.59748871 31.40522842 17.60903992 32.2440506 17.62094116 33.10829163 C17.74422332 38.0737884 18.21651055 42.33961238 20 47 C23.7205836 49.48038907 25.59796571 49.46337203 30 49 C32.86573519 47.03923382 33.81709241 45.81068818 34.58178711 42.42138672 C35.09372864 38.23320891 35.2307093 34.09835874 35.31640625 29.8828125 C35.33718735 29.02565643 35.35796844 28.16850037 35.37937927 27.28536987 C35.44441261 24.56532286 35.50354341 21.84518483 35.5625 19.125 C35.60572924 17.27342834 35.6493449 15.42186566 35.69335938 13.5703125 C35.80076857 9.04696665 35.90018468 4.52354522 36 0 C41.61 0 47.22 0 53 0 C53.09932347 6.67109905 53.17168403 13.34176191 53.21972656 20.01342773 C53.23976707 22.28010563 53.26700711 24.54673232 53.30175781 26.81323242 C53.35060868 30.08264856 53.37304512 33.35137757 53.390625 36.62109375 C53.41127014 37.62458359 53.43191528 38.62807343 53.45318604 39.66197205 C53.45567725 47.58040874 51.73150784 53.5856152 46.75 59.8125 C40.38552733 64.87514871 34.72656817 66.71354203 26.625 66.5625 C25.79009033 66.55081787 24.95518066 66.53913574 24.0949707 66.52709961 C17.5599667 66.29336542 12.08638577 65.41498285 7 61 C2.18943758 55.41418165 -0.13291515 50.50775736 -0.11352539 43.13964844 C-0.11344986 42.17895447 -0.11337433 41.2182605 -0.11329651 40.22845459 C-0.10813522 39.19915833 -0.10297394 38.16986206 -0.09765625 37.109375 C-0.0962413 36.04962463 -0.09482635 34.98987427 -0.09336853 33.89801025 C-0.08777382 30.51531138 -0.07522225 27.13267885 -0.0625 23.75 C-0.05748432 21.45573012 -0.05292153 19.16145921 -0.04882812 16.8671875 C-0.03780611 11.24476613 -0.02054507 5.62239431 0 0 Z " fill="#DE9D2C" transform="translate(863,960)"/>
<path d="M0 0 C7.858125 -0.1546875 7.858125 -0.1546875 15.875 -0.3125 C17.50679199 -0.35802002 19.13858398 -0.40354004 20.81982422 -0.45043945 C29.09225847 -0.52899768 36.15860982 -0.21590636 43 5 C49.04321506 11.41654792 49.44558473 17.80630034 49.2734375 26.2578125 C48.79718596 32.77565497 46.54446316 36.73470337 42 41.3125 C34.75733683 47.0164858 25.82101005 47 17 47 C17 52.94 17 58.88 17 65 C11.39 65 5.78 65 0 65 C0 43.55 0 22.1 0 0 Z M17 15 C17 20.61 17 26.22 17 32 C23.27071911 32.47287918 23.27071911 32.47287918 29 30.375 C31.45361779 27.46132887 31.92259889 25.79265452 32 22 C30.95102418 18.15375534 30.39462539 17.26308359 27 15 C24.48415109 14.75849227 24.48415109 14.75849227 21.8125 14.875 C20.224375 14.91625 18.63625 14.9575 17 15 Z " fill="#DE9D2C" transform="translate(1012,960)"/>
<path d="M0 0 C16.5 0 33 0 50 0 C50 5.28 50 10.56 50 16 C44.72 16 39.44 16 34 16 C34 32.17 34 48.34 34 65 C28.06 65 22.12 65 16 65 C16 48.83 16 32.66 16 16 C10.72 16 5.44 16 0 16 C0 10.72 0 5.44 0 0 Z " fill="#DE9D2C" transform="translate(939,960)"/>
<path d="M0 0 C1 2 1 2 0.30523682 4.58512878 C-0.07876282 5.67876236 -0.46276245 6.77239594 -0.85839844 7.89916992 C-1.50467194 9.75701363 -1.50467194 9.75701363 -2.16400146 11.65238953 C-2.64556327 13.01183054 -3.1273604 14.37118822 -3.609375 15.73046875 C-4.09745235 17.12310996 -4.58493195 18.51596081 -5.07183838 19.90901184 C-6.09636277 22.83526479 -7.12582153 25.7597164 -8.15917969 28.68286133 C-9.47842666 32.41492559 -10.78908579 36.1499276 -12.09646225 39.88616467 C-13.34763044 43.46036895 -14.60343953 47.03293752 -15.859375 50.60546875 C-16.09649956 51.28137747 -16.33362411 51.95728619 -16.57793427 52.65367699 C-17.25741532 54.58798051 -17.94021712 56.52107934 -18.62402344 58.45385742 C-19.01120544 59.55146896 -19.39838745 60.64908051 -19.79730225 61.779953 C-21.0908776 65.24331145 -22.5190511 68.61308933 -24 72 C-30.90623799 69.95124439 -37.16575495 67.10238869 -43.5625 63.8125 C-44.47580078 63.34908203 -45.38910156 62.88566406 -46.33007812 62.40820312 C-48.55626022 61.27762897 -50.77941297 60.14151301 -53 59 C-51.65758197 56.03327646 -50.15683032 53.88066126 -47.91015625 51.53125 C-47.29648193 50.88406006 -46.68280762 50.23687012 -46.05053711 49.57006836 C-45.39448486 48.8869458 -44.73843262 48.20382324 -44.0625 47.5 C-42.68956218 46.05389979 -41.31716978 44.60728157 -39.9453125 43.16015625 C-38.93259277 42.09498779 -38.93259277 42.09498779 -37.89941406 41.00830078 C-35.38093139 38.34544236 -32.90665305 35.64619775 -30.4375 32.9375 C-26.28223207 28.38590249 -22.0870895 23.87403494 -17.875 19.375 C-13.08069902 14.25326747 -8.33942824 9.09330575 -3.671875 3.85546875 C-2.48387024 2.53700552 -1.25493039 1.25493039 0 0 Z " fill="#DD9E2F" transform="translate(902,269)"/>
<path d="M0 0 C1.15039081 1.15039081 2.30044707 2.30111734 3.44921875 3.453125 C4.50916662 4.51040298 5.57454233 5.56225995 6.64453125 6.609375 C10.28698454 10.1942726 13.71360692 13.89600263 17.05078125 17.765625 C19.33020694 20.37851376 21.66212353 22.93930021 24 25.5 C27.45451789 29.28798568 30.86310857 33.10780094 34.2265625 36.9765625 C37.02202935 40.16610397 39.86972531 43.30826516 42.7109375 46.45703125 C46.15940762 50.28801086 49.58079129 54.14290898 53 58 C51.71723729 61.84828813 50.42913974 62.18588205 46.94140625 64.13671875 C45.40323242 65.00200195 45.40323242 65.00200195 43.83398438 65.88476562 C42.75439453 66.47966797 41.67480469 67.07457031 40.5625 67.6875 C38.94891602 68.59725586 38.94891602 68.59725586 37.30273438 69.52539062 C29.28467731 74 29.28467731 74 27 74 C21.03955009 58.41710027 15.15492006 42.80691556 9.37310791 27.15679932 C8.75219698 25.47658492 8.13041933 23.79669055 7.50775146 22.11712646 C6.6261654 19.73792547 5.74812223 17.35744672 4.87109375 14.9765625 C4.61006363 14.27343933 4.34903351 13.57031616 4.08009338 12.84588623 C2.52398235 8.60555801 1.19124482 4.35738287 0 0 Z " fill="#DD9E2F" transform="translate(1020,267)"/>
<path d="M0 0 C1.46291615 9.34561968 2.45462284 18.55636393 3 28 C-1.85304545 28.09481488 -6.41695897 27.7670149 -11.21484375 27.046875 C-12.23641571 26.89647011 -12.23641571 26.89647011 -13.27862549 26.74302673 C-14.74043892 26.52765536 -16.20195058 26.31022729 -17.66317749 26.09091187 C-21.54975754 25.50832903 -25.43879804 24.94281905 -29.328125 24.37890625 C-30.12401535 24.2633992 -30.9199057 24.14789215 -31.73991394 24.02888489 C-40.20924316 22.80960581 -48.69524624 21.73336621 -57.1875 20.6875 C-57.89147919 20.6006897 -58.59545837 20.51387939 -59.32077026 20.42443848 C-63.21332125 19.94526018 -67.10638973 19.47048955 -71 19 C-70.67 18.34 -70.34 17.68 -70 17 C-67.82090177 16.31719296 -65.60579439 15.74910061 -63.3828125 15.2265625 C-62.67955841 15.05830963 -61.97630432 14.89005676 -61.2517395 14.71670532 C-59.68636034 14.34235954 -58.12017704 13.97136566 -56.55334473 13.60314941 C-51.96420922 12.51910684 -47.38558702 11.39167039 -42.8046875 10.2734375 C-40.83340295 9.79398451 -38.86204799 9.31482092 -36.890625 8.8359375 C-35.90255859 8.59584961 -34.91449219 8.35576172 -33.89648438 8.10839844 C-31.86443304 7.61516296 -29.83220319 7.12266238 -27.79980469 6.63085938 C-24.82169644 5.90987373 -21.84438375 5.18567854 -18.8671875 4.4609375 C-17.96402802 4.24319672 -17.06086853 4.02545593 -16.13034058 3.80111694 C-12.55153524 2.92767733 -9.06506551 2.02189232 -5.57080078 0.84619141 C-3 0 -3 0 0 0 Z " fill="#DD9E30" transform="translate(1101,237)"/>
<path d="M0 0 C7.85261322 1.48813384 15.61074165 3.29602417 23.375 5.1875 C24.62128174 5.49067139 25.86756348 5.79384277 27.15161133 6.10620117 C29.76733831 6.74328212 32.38256851 7.38236259 34.99755859 8.02246094 C38.34958492 8.8424489 41.70364961 9.65376579 45.05822754 10.46324158 C48.26949153 11.24016267 51.47832324 12.02700942 54.6875 12.8125 C55.8926123 13.10213623 57.09772461 13.39177246 58.33935547 13.69018555 C59.44811035 13.96386963 60.55686523 14.23755371 61.69921875 14.51953125 C62.67721436 14.75776611 63.65520996 14.99600098 64.6628418 15.24145508 C67 16 67 16 69 18 C49.84751377 21.0039066 30.68566134 23.8636853 11.4375 26.1875 C10.75292725 26.2714502 10.06835449 26.35540039 9.36303711 26.44189453 C5.8889925 26.84895075 2.49780841 27.08727737 -1 27 C-1.02721831 23.9999376 -1.04694378 21.00012744 -1.0625 18 C-1.07087891 17.16082031 -1.07925781 16.32164062 -1.08789062 15.45703125 C-1.10824033 10.20680661 -0.76368207 5.19544338 0 0 Z " fill="#DD9F31" transform="translate(826,238)"/>
<path d="M0 0 C-6.40848889 3.27876176 -12.90678764 4.0933488 -20 5 C-17.30621211 2.30621211 -14.77425019 1.86327163 -11.125 0.8125 C-9.89007812 0.44769531 -8.65515625 0.08289063 -7.3828125 -0.29296875 C-4.31094495 -0.93501035 -2.85642008 -1.12677877 0 0 Z " fill="#D9E0E7" transform="translate(1041,727)"/>
</svg>
