<?xml version="1.0" encoding="UTF-8"?>
<svg version="1.1" xmlns="http://www.w3.org/2000/svg" width="550" height="580">
<path d="M0 0 C8.62730898 4.52033655 14.13007588 10.44259208 17.27734375 19.71875 C18.92832262 27.21508647 19.71357896 37.09506411 16 44 C14.0390625 46.33203125 14.0390625 46.33203125 11.625 48.8125 C-20.75766321 83.6646325 -40.47798236 129.98577529 -39.08886719 177.79638672 C-37.31525723 221.77606661 -22.61774771 264.04844382 7 297 C8.06599884 298.28878062 9.1291767 299.57990895 10.1875 300.875 C13.45863645 304.65436386 17.1422936 307.83322609 21 311 C22.33611328 312.12728516 22.33611328 312.12728516 23.69921875 313.27734375 C51.58131085 335.87576154 87.09486185 345.71848954 122 351 C123.25296875 351.19980469 124.5059375 351.39960938 125.796875 351.60546875 C162.5750502 355.80750008 214.15076789 338.95976757 243.1328125 316.37890625 C248.27731787 312.11050874 253.16363045 307.61234154 258 303 C258.84304688 302.22140625 259.68609375 301.4428125 260.5546875 300.640625 C273.09575827 288.70056401 282.24208069 274.37248214 290 259 C290.54116455 257.93773193 290.54116455 257.93773193 291.09326172 256.85400391 C300.4451375 238.17181038 305.54527002 217.67939906 308 197 C308.19529297 195.50146484 308.19529297 195.50146484 308.39453125 193.97265625 C313.31377878 148.25644923 300.62214037 102.95099293 272 67 C270.4628668 65.12128165 268.92124877 63.24622309 267.375 61.375 C258.29920928 50.37933047 251.0796032 41.0153619 252.21484375 26.1953125 C253.43259554 18.00738145 256.01805706 10.05375828 262.5625 4.625 C270.25714779 -0.47578347 279.77505446 -3.48483713 289 -2 C313.7728246 7.08336902 338.78925513 34.56988189 354 55 C354.87198893 56.13182402 355.74441549 57.26331096 356.6171875 58.39453125 C376.91267397 85.02770759 387.74144504 114.5581684 395.375 146.875 C395.5504837 147.61687561 395.72596741 148.35875122 395.9067688 149.12310791 C396.41018165 151.26558976 396.90605598 153.40964595 397.3984375 155.5546875 C397.68380371 156.79718262 397.96916992 158.03967773 398.26318359 159.31982422 C399.7028893 166.51072013 400.17438403 173.44285729 400.23828125 180.75390625 C400.24802979 181.67988617 400.25777832 182.60586609 400.26782227 183.55990601 C400.44999338 205.39425234 399.90746058 226.47072086 396 248 C395.81276367 249.05106934 395.62552734 250.10213867 395.43261719 251.18505859 C386.35647168 300.57089008 360.49762407 343.14420175 326 379 C325.25169922 379.78117188 325.25169922 379.78117188 324.48828125 380.578125 C317.7196341 387.60777397 310.66511748 393.94323386 303 400 C301.90297583 400.9077783 300.80802054 401.81806097 299.71484375 402.73046875 C284.82219666 415.06595952 268.78332377 426.26992088 251 434 C250.10361816 434.3913916 249.20723633 434.7827832 248.28369141 435.18603516 C226.30962034 444.64815376 203.66315684 451.39609245 180 455 C179.03562012 455.14953125 178.07124023 455.2990625 177.07763672 455.453125 C148.50663936 459.69738393 118.48526291 459.916442 90 455 C89.11086914 454.85498047 88.22173828 454.70996094 87.30566406 454.56054688 C59.15078653 449.80806115 31.08071132 439.49592368 6 426 C5.21189941 425.58041016 4.42379883 425.16082031 3.61181641 424.72851562 C-16.29037566 413.99300094 -34.66595999 399.66248393 -50.46191406 383.50732422 C-52.09279832 381.85089947 -52.09279832 381.85089947 -54.5 380.0625 C-57.35185248 377.7097217 -59.60774256 375.11846509 -62 372.30859375 C-64.16588288 369.8085219 -66.42415487 367.41205851 -68.6875 365 C-84.44216722 347.62702859 -97.31190931 327.3331655 -107 306 C-107.33338379 305.27135742 -107.66676758 304.54271484 -108.01025391 303.79199219 C-116.86133708 284.22906317 -122.18927529 264.09433951 -126 243 C-126.24991699 241.68177246 -126.24991699 241.68177246 -126.50488281 240.33691406 C-131.71727537 211.83602641 -131.91876942 178.35478756 -126 150 C-125.80132324 149.01451172 -125.60264648 148.02902344 -125.39794922 147.01367188 C-117.95485448 110.99689885 -102.85662195 78.75535312 -80 50 C-79.55720703 49.44006348 -79.11441406 48.88012695 -78.65820312 48.30322266 C-67.11355394 33.83769043 -53.93464933 20.92434238 -39 10 C-38.38286133 9.54334961 -37.76572266 9.08669922 -37.12988281 8.61621094 C-35.25953255 7.23528019 -33.38219769 5.86473095 -31.5 4.5 C-30.93651855 4.09023926 -30.37303711 3.68047852 -29.79248047 3.25830078 C-19.53716557 -4.04069237 -11.59832553 -4.40505393 0 0 Z M-52 39 C-52.94875 39.89589844 -53.8975 40.79179687 -54.875 41.71484375 C-62.01066519 48.61738352 -68.06953042 56.07169261 -74 64 C-74.42667969 64.56058105 -74.85335937 65.12116211 -75.29296875 65.69873047 C-93.41339117 89.56890231 -105.36821969 117.63456846 -111.8125 146.8125 C-112.10483521 148.13447388 -112.10483521 148.13447388 -112.40307617 149.4831543 C-115.56610873 164.67937199 -116.37432489 179.52971914 -116.3125 195 C-116.31067719 195.94743073 -116.30885437 196.89486145 -116.30697632 197.8710022 C-116.25982988 212.44355068 -115.64474479 226.63872341 -113 241 C-112.83371094 241.96244629 -112.66742188 242.92489258 -112.49609375 243.91650391 C-103.61131385 294.61733589 -76.90995712 345.00245416 -36.9609375 378.34765625 C-34.73564151 380.22275626 -32.62882788 382.20365874 -30.5 384.1875 C5.22080719 416.30895868 50.91387432 435.31397914 98 443 C98.78375 443.13132324 99.5675 443.26264648 100.375 443.39794922 C158.78299048 452.6936852 227.27985088 439.07551351 275.375 404.4375 C281.71509929 399.78711893 287.96728827 395.0448432 294 390 C294.49322754 389.59555664 294.98645508 389.19111328 295.49462891 388.77441406 C309.58729697 377.20269688 322.90620191 364.50727443 334 350 C334.7940625 348.9996875 335.588125 347.999375 336.40625 346.96875 C376.28486096 296.53016518 393.5571501 231.93861088 386.61767578 167.9609375 C385.6101597 160.82679764 383.91426621 153.93743376 382 147 C381.46168717 144.89370226 380.92528519 142.78691539 380.390625 140.6796875 C372.13961586 109.01079678 359.29775202 81.91722687 338 57 C337.35160156 56.23945313 336.70320313 55.47890625 336.03515625 54.6953125 C325.01136798 42.12692434 313.1921837 30.02045755 299.63330078 20.18896484 C297.98532845 18.98931981 296.36687929 17.75555767 294.74609375 16.51953125 C288.83998777 11.94947363 288.83998777 11.94947363 281.75 10.75 C279.89375 11.36875 279.89375 11.36875 278 12 C277.29875 12.23332031 276.5975 12.46664062 275.875 12.70703125 C271.96495675 14.28111116 269.61500868 15.96779113 267.5625 19.6875 C265.18350817 25.4013286 264.10288445 30.49555242 266.21875 36.40234375 C267.85779858 39.96929159 269.99535032 42.92024474 272.4375 46 C273.08513306 46.82685303 273.08513306 46.82685303 273.74584961 47.67041016 C276.12610298 50.69689575 278.55524895 53.68037704 281.0078125 56.6484375 C313.64202385 96.29884745 326.00025946 146.195785 321.22851562 196.81958008 C315.83506994 246.29550483 294.13435207 290.92462333 256.04296875 323.53125 C249.93780032 328.38466691 243.55910302 332.69393955 236.9375 336.8125 C236.23036865 337.25658203 235.5232373 337.70066406 234.79467773 338.15820312 C204.55162844 356.49359028 156.1825742 368.80193608 121 364 C120.11876465 363.88624023 119.2375293 363.77248047 118.32958984 363.65527344 C79.47178 358.44759438 35.46213071 345.24044911 7.31640625 316.234375 C5.29648984 313.76858404 5.29648984 313.76858404 3 314 C2.74089844 313.40832031 2.48179687 312.81664062 2.21484375 312.20703125 C0.9078467 309.83258322 -0.43389173 308.499495 -2.4375 306.6875 C-34.3562107 275.46267431 -50.80808656 224.58257414 -52 181 C-52.03996094 179.71996094 -52.07992187 178.43992187 -52.12109375 177.12109375 C-53.18499933 126.33012105 -33.46051099 77.86182579 1.2578125 40.91796875 C5.25073413 36.52217386 5.42991447 33.5801894 5.31640625 27.859375 C4.71232437 22.40026467 2.5439687 18.63219548 -1.1875 14.6875 C-20.05466757 3.36719946 -38.79255446 26.3330876 -52 39 Z " fill="#E4B95B" transform="translate(141,112)"/>
<path d="M0 0 C15.22852941 6.80804844 29.14031949 20.20383331 42.15869141 30.54443359 C45.67231725 33.32197765 49.21267937 36.06524275 52.75 38.8125 C53.88707397 39.69615234 53.88707397 39.69615234 55.04711914 40.59765625 C56.59317122 41.79910735 58.13931434 43.0004413 59.68554688 44.20166016 C63.45815634 47.13299363 67.22900355 50.06659198 71 53 C72.49999123 54.16667794 73.99999124 55.3333446 75.5 56.5 C84.5 63.5 84.5 63.5 86.7512207 65.25097656 C88.24711662 66.41443312 89.74304745 67.57784478 91.23901367 68.74121094 C95.05209776 71.70661998 98.86452064 74.67287262 102.67578125 77.640625 C104.22132169 78.84379171 105.76689429 80.04691713 107.3125 81.25 C108.06281494 81.83418701 108.81312988 82.41837402 109.58618164 83.02026367 C113.48575556 86.05383779 117.3949074 89.07393138 121.31958008 92.07495117 C143.08737822 108.72516526 143.08737822 108.72516526 144.1796875 115.8671875 C143.69135857 121.66343959 138.88620616 125.15831224 134.78515625 128.69921875 C130.41175229 132.31203071 125.94448303 135.80049981 121.46875 139.28515625 C116.5737417 143.10203363 111.79324442 147.05666594 107 151 C104.23271614 153.27519802 101.46116832 155.54509101 98.6875 157.8125 C98.01734863 158.36405762 97.34719727 158.91561523 96.65673828 159.48388672 C94.78685256 161.01048586 92.90077502 162.51210036 91 164 C90.45939941 164.43231934 89.91879883 164.86463867 89.36181641 165.31005859 C86.73430976 167.26664111 85.44620731 168.03880064 82.125 167.75 C81.42375 167.5025 80.7225 167.255 80 167 C80.50660156 168.52367187 80.50660156 168.52367187 81.0234375 170.078125 C81.47440415 171.46860549 81.92489917 172.859239 82.375 174.25 C82.59671875 174.91257812 82.8184375 175.57515625 83.046875 176.2578125 C91.88050763 203.79796129 87.83121141 233.97329877 75.2578125 259.54296875 C63.56582905 281.39873035 44.53015975 297.97316277 20.8125 305.5 C4.06636138 310.24071552 -14.56650256 309.55471434 -31 304 C-31.92683594 303.69964844 -32.85367188 303.39929688 -33.80859375 303.08984375 C-55.61202554 295.23244477 -72.94744103 276.50850496 -82.98046875 256.07421875 C-94.89108448 230.58836361 -97.63132721 199.48766606 -88.19384766 172.71289062 C-87.48145387 170.80144723 -86.74325157 168.8996573 -86 167 C-86.969375 167.165 -87.93875 167.33 -88.9375 167.5 C-92.99867857 167.55801684 -94.87878327 165.7256312 -97.8125 163.0625 C-98.93591797 161.96615234 -98.93591797 161.96615234 -100.08203125 160.84765625 C-101.87139599 158.93994295 -101.87139599 158.93994295 -104 158 C-104.23976562 158.63421875 -104.47953125 159.2684375 -104.7265625 159.921875 C-105.75917403 162.41788079 -106.85711401 164.83165038 -108.0234375 167.265625 C-117.40702308 186.26181211 -117.40702308 186.26181211 -118.73046875 206.96484375 C-115.46105478 216.07374577 -108.77570905 223.57556903 -101.76953125 230.06640625 C-100 232 -100 232 -99.8125 235.0625 C-101.39067872 242.57918625 -106.8040751 249.69837061 -113 254 C-116 254.5625 -116 254.5625 -119 254 C-127.73522922 247.50457314 -134.14882886 234.59440959 -136 224 C-137.35339693 206.16428429 -135.11925279 189.31559356 -131 172 C-130.78118164 171.07445312 -130.56236328 170.14890625 -130.33691406 169.1953125 C-128.10602637 159.93220499 -125.56113036 150.85308943 -122 142 C-122.58265625 141.72978027 -123.1653125 141.45956055 -123.765625 141.18115234 C-126.00078095 139.99958717 -127.79329689 138.69694259 -129.75 137.1015625 C-130.4409375 136.53953125 -131.131875 135.9775 -131.84375 135.3984375 C-132.91109375 134.52058594 -132.91109375 134.52058594 -134 133.625 C-134.7115625 133.0475 -135.423125 132.47 -136.15625 131.875 C-145.61928419 124.14214744 -145.61928419 124.14214744 -147 120 C-147.42114994 113.47217594 -146.91049243 110.40760133 -142.58203125 105.33984375 C-136.54112036 98.84553116 -129.29216033 93.83672953 -122.17626953 88.60742188 C-112.19169783 81.23268325 -102.4191836 73.59873465 -92.81298828 65.73901367 C-86.84508593 60.85732567 -80.79426085 56.08818774 -74.71777344 51.34277344 C-72.393835 49.52616437 -70.07468196 47.70350334 -67.75585938 45.88037109 C-66.58304426 44.95836099 -65.40986562 44.03681313 -64.23632812 43.11572266 C-61.38911464 40.88077067 -58.54562353 38.64145032 -55.7109375 36.390625 C-42.29198205 25.7528515 -28.62929723 15.41904947 -14.625 5.5625 C-13.45771362 4.71969482 -13.45771362 4.71969482 -12.2668457 3.85986328 C-8.11472242 0.98318126 -5.23462598 -0.97267518 0 0 Z M-7.53515625 14.38671875 C-8.25348633 14.90637207 -8.97181641 15.42602539 -9.71191406 15.96142578 C-10.8754541 16.81583252 -10.8754541 16.81583252 -12.0625 17.6875 C-12.86526367 18.27257324 -13.66802734 18.85764648 -14.49511719 19.46044922 C-26.97273216 28.5926167 -39.17428142 38.08284984 -51.30712891 47.66601562 C-53.00730315 49.00575489 -54.71188048 50.33967726 -56.41796875 51.671875 C-62.66368156 56.55274787 -68.85716622 61.49011721 -75 66.5 C-90.40683404 79.05487214 -106.20868885 91.0816417 -122.05859375 103.0703125 C-123.20583058 103.94257496 -124.35297486 104.81495918 -125.5 105.6875 C-126.4590625 106.41324219 -127.418125 107.13898438 -128.40625 107.88671875 C-131.12510321 110.10192897 -133.56381199 112.47995769 -136 115 C-134.60154053 118.27584343 -133.03627907 120.06670489 -130.26171875 122.27734375 C-129.15473633 123.17163086 -129.15473633 123.17163086 -128.02539062 124.08398438 C-127.25388672 124.69564453 -126.48238281 125.30730469 -125.6875 125.9375 C-112.21739177 136.71130158 -112.21739177 136.71130158 -111.51171875 140.89453125 C-111.56972656 141.85746094 -111.62773437 142.82039062 -111.6875 143.8125 C-111.73261719 144.78832031 -111.77773437 145.76414062 -111.82421875 146.76953125 C-111.88222656 147.50558594 -111.94023437 148.24164063 -112 149 C-110.948125 148.2575 -110.948125 148.2575 -109.875 147.5 C-106.48475614 145.73117712 -104.77553457 145.46063792 -101 146 C-97.8125 147.875 -97.8125 147.875 -95 150 C-94.01 150.66 -93.02 151.32 -92 152 C-91.66959717 151.24662354 -91.66959717 151.24662354 -91.33251953 150.47802734 C-80.28212249 125.55355854 -64.48276581 103.42182425 -38.4765625 92.5234375 C-18.24127491 85.01750653 5.48791458 83.64162 26 91 C27.60294922 91.56074219 27.60294922 91.56074219 29.23828125 92.1328125 C54.86972769 101.96851368 71.94074397 123.01665685 82.96923828 147.37792969 C83.65357783 148.91533882 84.32798109 150.45716558 85 152 C89.43910124 150.55831024 92.50301975 148.11214531 95.9375 145.0625 C100.49681999 141.1094795 105.11262952 137.26874042 109.875 133.5625 C115.07058097 129.5145314 120.23539293 125.43139357 125.375 121.3125 C126.03612793 120.78277588 126.69725586 120.25305176 127.37841797 119.70727539 C128.91935176 118.47202378 130.45973968 117.23609127 132 116 C128.2381273 112.08850736 124.25774191 108.67181931 120 105.3125 C119.00770386 104.52431885 119.00770386 104.52431885 117.99536133 103.72021484 C112.86581699 99.65663762 107.68936301 95.65629646 102.4921875 91.6796875 C98.41563601 88.55787618 94.36410097 85.4040862 90.3125 82.25 C89.17010864 81.36078857 89.17010864 81.36078857 88.00463867 80.45361328 C86.44654195 79.24065319 84.88851837 78.02759914 83.33056641 76.81445312 C79.55482734 73.87486662 75.77734465 70.93752285 72 68 C70.49999123 66.83334461 68.99999124 65.66667793 67.5 64.5 C66.7575 63.9225 66.015 63.345 65.25 62.75 C58.5 57.5 58.5 57.5 56.25048828 55.75024414 C54.7490359 54.58253833 53.247408 53.41505818 51.74560547 52.24780273 C48.01636156 49.34885094 44.29015772 46.44616095 40.5703125 43.53515625 C32.57824942 37.28699173 24.54220971 31.10154417 16.4375 25 C15.62877441 24.38906494 14.82004883 23.77812988 13.98681641 23.14868164 C3.82672367 13.77353601 3.82672367 13.77353601 -7.53515625 14.38671875 Z M-58 118 C-59.13115234 119.06927734 -59.13115234 119.06927734 -60.28515625 120.16015625 C-69.16365536 129.28919502 -78.23864247 142.68799793 -82 155 C-81.67 155.99 -81.34 156.98 -81 158 C-80.45472656 157.10539062 -79.90945312 156.21078125 -79.34765625 155.2890625 C-74.51957275 147.49775086 -69.41066883 140.60061458 -63 134 C-62.42765625 133.36578125 -61.8553125 132.7315625 -61.265625 132.078125 C-48.15798557 117.97180828 -26.9213451 109.51212779 -7.90625 108.796875 C16.71556257 108.35695117 37.46702285 115.66386328 55.62109375 132.65234375 C62.586766 139.52651291 68.32014403 146.37438312 73 155 C74.38609949 151.94392685 74.38609949 151.94392685 72.6640625 148.84765625 C71.99859914 147.57837779 71.31783538 146.31704711 70.625 145.0625 C70.25922852 144.39371826 69.89345703 143.72493652 69.51660156 143.03588867 C58.04641207 122.56350075 40.89052775 105.68983733 18 99 C-9.19018332 92.12189847 -37.59478135 98.63952855 -58 118 Z M-56 143 C-56.61617187 143.54140625 -57.23234375 144.0828125 -57.8671875 144.640625 C-73.32951971 158.74911246 -81.32126219 181.3749915 -82.3828125 201.8515625 C-82.8827327 218.90333643 -80.55334283 234.58411317 -73 250 C-72.55914062 250.92039062 -72.11828125 251.84078125 -71.6640625 252.7890625 C-61.82779549 272.0811884 -45.104688 286.12005998 -24.79296875 293.2109375 C-4.26437614 299.0106238 15.3947428 296.50693696 34.13671875 286.328125 C55.0868443 274.18948332 67.55836028 253.33098627 73.96875 230.55859375 C79.51821577 207.15320802 76.06514348 181.68315906 64.15234375 160.75390625 C59.76132169 153.90111834 54.70024191 147.79852194 49 142 C48.31421875 141.30132812 47.6284375 140.60265625 46.921875 139.8828125 C32.75862843 126.40150003 13.66748335 119.34282061 -5.80078125 119.75 C-25.73148245 121.30746627 -41.73284999 129.36157185 -56 143 Z M74 155 C75 157 75 157 75 157 Z M75 157 C76 159 76 159 76 159 Z M-83 158 C-82 160 -82 160 -82 160 Z M-124 223 C-123.68082827 229.06426294 -120.72560656 234.31055493 -117 239 C-116.01 239 -115.02 239 -114 239 C-113.15058243 237.24152574 -113.15058243 237.24152574 -113 235 C-114.53328384 232.6371844 -114.53328384 232.6371844 -116.75 230.4375 C-117.46671875 229.67308594 -118.1834375 228.90867187 -118.921875 228.12109375 C-120.60461868 226.4035565 -122.29169639 224.69208554 -124 223 Z " fill="#E4B95A" transform="translate(279,134)"/>
<path d="M0 0 C2.29541016 -0.01245117 2.29541016 -0.01245117 5 1 C6.33545103 3.76623639 7.3191806 6.30291335 8.2734375 9.19921875 C14.18119965 26.91100776 14.18119965 26.91100776 26.20349121 40.34289551 C36.33807303 44.69176143 48.03938881 44.95533008 58.92675781 44.9387207 C62.70776323 44.938553 66.27249802 45.37742003 70 46 C70 49 70 49 67.4375 51.890625 C66.29991752 53.01879764 65.15352556 54.13813391 64 55.25 C63.1030542 56.13051025 63.1030542 56.13051025 62.18798828 57.02880859 C59.15750181 59.98388128 56.08865935 62.86851394 52.875 65.625 C52.276875 66.15480469 51.67875 66.68460937 51.0625 67.23046875 C49.4191481 68.64038998 47.71817232 69.98306837 46 71.30078125 C41.85750252 74.67081799 38.30510761 77.69505073 37.5703125 83.24609375 C37.97557819 86.66874671 38.59247957 89.89845741 39.38525391 93.24658203 C40.57281127 98.56559391 41.42637468 103.95035334 42.34204102 109.32159424 C42.68451441 111.29529382 43.04627988 113.26561406 43.40820312 115.23583984 C43.73788086 117.06236084 43.73788086 117.06236084 44.07421875 118.92578125 C44.37718872 120.57187378 44.37718872 120.57187378 44.6862793 122.2512207 C45 125 45 125 44 128 C41.07947287 126.57025641 38.16392472 125.13065038 35.25 123.6875 C34.35853271 123.24688232 33.46706543 122.80626465 32.54858398 122.35229492 C27.7622688 119.96270139 23.04490585 117.49699987 18.39453125 114.8515625 C17.50024414 114.34407471 16.60595703 113.83658691 15.68457031 113.3137207 C13.9618357 112.327399 12.24603003 111.32885604 10.53808594 110.31713867 C9.75336914 109.86830322 8.96865234 109.41946777 8.16015625 108.95703125 C7.47574463 108.55460205 6.79133301 108.15217285 6.08618164 107.73754883 C2.14640445 106.34467968 -0.61980242 107.82429172 -4.28637695 109.51879883 C-5.52365721 110.15851044 -6.757466 110.80496746 -7.98828125 111.45703125 C-8.65031052 111.80126633 -9.31233978 112.1455014 -9.99443054 112.50016785 C-12.1035755 113.59841543 -14.20810185 114.70518861 -16.3125 115.8125 C-17.71518629 116.54551253 -19.11817839 117.27794016 -20.52148438 118.00976562 C-22.54879115 119.06714312 -24.57586031 120.12494288 -26.60159302 121.18533325 C-31.04303277 123.50920316 -35.50392094 125.78395068 -40 128 C-39.36516239 117.61733325 -37.61039159 107.55601052 -35.72851562 97.33789062 C-35.50744141 96.10619141 -35.28636719 94.87449219 -35.05859375 93.60546875 C-34.85548584 92.50356201 -34.65237793 91.40165527 -34.44311523 90.26635742 C-34.29688721 89.18845947 -34.15065918 88.11056152 -34 87 C-33.8337915 85.86723633 -33.66758301 84.73447266 -33.49633789 83.56738281 C-34.24591849 78.25818661 -37.21010327 75.91068468 -41 72.31640625 C-42.06541016 71.26585304 -42.06541016 71.26585304 -43.15234375 70.19407654 C-45.41896887 67.96655531 -47.70872625 65.76463128 -50 63.5625 C-51.54325757 62.05436061 -53.08494428 60.54461198 -54.625 59.03320312 C-58.39865523 55.33661996 -62.19158781 51.66074629 -66 48 C-65.67 47.34 -65.34 46.68 -65 46 C-62.02603479 45.39090684 -59.11212118 44.90668675 -56.109375 44.4921875 C-54.76422821 44.29666794 -54.76422821 44.29666794 -53.39190674 44.09719849 C-51.48925723 43.8224246 -49.5859703 43.55203487 -47.68212891 43.28564453 C-44.77489339 42.87848632 -41.86982772 42.45804928 -38.96484375 42.03515625 C-37.11730045 41.77004503 -35.26964737 41.50569745 -33.421875 41.2421875 C-32.55399353 41.11721893 -31.68611206 40.99225037 -30.79193115 40.86349487 C-26.83117729 40.31260111 -23.01099977 39.83705954 -19 40 C-18.75072754 39.1754834 -18.50145508 38.3509668 -18.24462891 37.50146484 C-16.81454967 33.47827997 -15.01468965 29.77899643 -13.0859375 25.9765625 C-12.5241832 24.85729874 -12.5241832 24.85729874 -11.95108032 23.71542358 C-10.76282034 21.35003203 -9.56900618 18.9874953 -8.375 16.625 C-7.56473474 15.01450873 -6.75483502 13.40383349 -5.9453125 11.79296875 C-3.96776546 7.85983766 -1.98523484 3.92925592 0 0 Z M2 22 C0.38411822 24.97295052 -1.2154425 27.95440095 -2.8125 30.9375 C-3.26431641 31.76830078 -3.71613281 32.59910156 -4.18164062 33.45507812 C-7.05084318 38.8374508 -9.28226329 44.14588957 -11 50 C-11.62970703 50.04608398 -12.25941406 50.09216797 -12.90820312 50.13964844 C-22.99839243 50.90484274 -32.99559494 52.5190527 -43 54 C-39.28365143 58.43096838 -35.47037119 62.66616506 -31.375 66.75 C-30.45460938 67.67296875 -29.53421875 68.5959375 -28.5859375 69.546875 C-26.19151798 72.0146022 -26.19151798 72.0146022 -23.6640625 73.328125 C-22 75 -22 75 -21.625 78.375 C-21.9289395 84.3018203 -23.00949593 90.15736452 -24 96 C-24.19078125 97.15628906 -24.3815625 98.31257813 -24.578125 99.50390625 C-25.04639421 102.33693496 -25.52049091 105.16885589 -26 108 C-23.56114574 106.79434306 -21.12402286 105.58535241 -18.6875 104.375 C-17.95998535 104.01615723 -17.2324707 103.65731445 -16.48291016 103.28759766 C-11.30543762 100.71428073 -6.32592191 97.91759302 -1.4296875 94.8359375 C2.12435342 93.61316458 3.56007248 94.4675961 7 96 C10.61983964 97.8088209 14.18801902 99.7051361 17.75 101.625 C19.6386201 102.64175376 21.52915234 103.65496636 23.421875 104.6640625 C24.25299805 105.11217285 25.08412109 105.5602832 25.94042969 106.02197266 C27.92110891 107.1429869 27.92110891 107.1429869 30 107 C29.91435791 106.41621582 29.82871582 105.83243164 29.74047852 105.23095703 C29.34549857 102.5293049 28.95398553 99.82716062 28.5625 97.125 C28.42779297 96.2071875 28.29308594 95.289375 28.15429688 94.34375 C27.88552814 92.48203485 27.63584289 90.61747273 27.40454102 88.75073242 C27.05744099 86.01368862 27.05744099 86.01368862 26.31225586 83.4621582 C25.67677046 80.67490766 25.46077758 78.819293 26 76 C28.94060145 71.75090488 32.62092296 68.38276056 36.4375 64.9375 C37.45631182 63.98251579 38.47261904 63.02485213 39.48632812 62.06445312 C41.329934 60.32320046 43.18556443 58.59453532 45.05639648 56.88256836 C45.69778564 56.2613208 46.3391748 55.64007324 47 55 C47 54.67 47 54.34 47 54 C46.12899658 53.9899292 45.25799316 53.9798584 44.3605957 53.96948242 C20.00773736 53.21596855 20.00773736 53.21596855 13.25585938 46.11328125 C8.29517206 38.92149642 5.43120704 30.31586204 3 22 C2.67 22 2.34 22 2 22 Z " fill="#E4B95B" transform="translate(273,0)"/>
<path d="M0 0 C2.8125 0.1875 2.8125 0.1875 5 1 C4.44134867 7.6656928 2.69823912 13.44010713 0.46484375 19.7265625 C0.10789932 20.7506723 -0.2490451 21.7747821 -0.61680603 22.82992554 C-1.75794978 26.09760325 -2.9101759 29.36125057 -4.0625 32.625 C-4.80994373 34.76277659 -5.55669432 36.90079566 -6.30273438 39.0390625 C-9.97904734 49.55334772 -13.71327013 60.04700719 -17.49609375 70.5234375 C-17.83471939 71.46635651 -18.17334503 72.40927551 -18.52223206 73.38076782 C-18.83385788 74.23915253 -19.1454837 75.09753723 -19.46655273 75.98193359 C-19.73958725 76.73687103 -20.01262177 77.49180847 -20.29393005 78.2696228 C-21 80 -21 80 -22 81 C-27.08762619 80.58712775 -30.99043489 79.32957817 -35.5546875 77.09375 C-36.43521286 76.66660706 -36.43521286 76.66660706 -37.33352661 76.23083496 C-39.18523498 75.3295383 -41.02993624 74.41480791 -42.875 73.5 C-44.13500649 72.88587647 -45.39542005 72.27258739 -46.65625 71.66015625 C-55.82371069 67.17628931 -55.82371069 67.17628931 -57 66 C-57.29342629 63.17963473 -57.36717584 61.56369878 -55.79760742 59.15405273 C-55.23920166 58.58630127 -54.6807959 58.0185498 -54.10546875 57.43359375 C-53.48518799 56.78946533 -52.86490723 56.14533691 -52.22583008 55.48168945 C-51.21685669 54.46981567 -51.21685669 54.46981567 -50.1875 53.4375 C-48.79890069 52.00316397 -47.41088376 50.56826391 -46.0234375 49.1328125 C-45.33604492 48.42930664 -44.64865234 47.72580078 -43.94042969 47.00097656 C-41.3408812 44.32031484 -38.82474479 41.57523254 -36.3125 38.8125 C-28.1076039 29.83310044 -19.85240061 20.90097661 -11.5625 12 C-10.98330811 11.37697998 -10.40411621 10.75395996 -9.80737305 10.11206055 C-8.71544912 8.94135928 -7.62008118 7.77385764 -6.52075195 6.61010742 C-5.53196699 5.563224 -4.55084846 4.50902744 -3.57885742 3.4465332 C-2.44395129 2.24031302 -1.22787642 1.11143986 0 0 Z M-10 21 C-22.76286496 34.57958327 -35.417493 48.25336341 -48 62 C-45.33307451 64.1161474 -42.79025872 65.68424442 -39.671875 67.04296875 C-38.87265625 67.39423828 -38.0734375 67.74550781 -37.25 68.10742188 C-36.425 68.46384766 -35.6 68.82027344 -34.75 69.1875 C-33.90953125 69.55552734 -33.0690625 69.92355469 -32.203125 70.30273438 C-30.13739852 71.20648971 -28.06970271 72.1053974 -26 73 C-23.54790009 66.08102404 -21.10994763 59.15718385 -18.68188477 52.22973633 C-17.85377703 49.87246437 -17.02240694 47.51633588 -16.18774414 45.16137695 C-14.99030906 41.78109527 -13.80457044 38.39690861 -12.62109375 35.01171875 C-12.24407822 33.95538742 -11.86706268 32.89905609 -11.47862244 31.81071472 C-11.13819412 30.82992447 -10.79776581 29.84913422 -10.44702148 28.83862305 C-10.1427977 27.97480515 -9.83857391 27.11098724 -9.52513123 26.22099304 C-8.75844485 23.84794764 -8.75844485 23.84794764 -10 21 Z " fill="#E4B95B" transform="translate(216,90)"/>
<path d="M0 0 C3.93177058 0.53767803 5.0787756 2.39054128 7.6171875 5.375 C8.05281006 5.87829834 8.48843262 6.38159668 8.93725586 6.90014648 C10.21707297 8.38190341 11.47996703 9.87822517 12.7421875 11.375 C13.92699714 12.73152118 15.11414949 14.08600347 16.3046875 15.4375 C16.85253906 16.06785156 17.40039062 16.69820312 17.96484375 17.34765625 C20.03578237 19.70989173 22.13731598 22.04295853 24.2421875 24.375 C26.91267094 27.33369751 29.56516808 30.30426472 32.1796875 33.3125 C34.99041275 36.54059512 37.8579865 39.71238443 40.7421875 42.875 C44.27143676 46.74699881 47.78484056 50.62758314 51.19921875 54.6015625 C52.21198313 55.76560055 53.25078929 56.90758054 54.31640625 58.0234375 C57.74988476 61.72971293 57.74988476 61.72971293 57.71289062 64.83105469 C56.35349674 68.39365133 54.54205394 69.10898556 51.2109375 70.890625 C50.09074219 71.50164062 48.97054687 72.11265625 47.81640625 72.7421875 C46.62528586 73.37033402 45.43387593 73.9979318 44.2421875 74.625 C43.04991386 75.26661997 41.85849572 75.90983236 40.66796875 76.5546875 C38.49475367 77.73007425 36.31737209 78.89780967 34.13476562 80.05566406 C31.85778238 81.16681933 31.85778238 81.16681933 30.7421875 82.375 C28.74260386 82.41580783 26.74173496 82.41754356 24.7421875 82.375 C20.10911596 69.96675665 15.48827254 57.55402506 10.88085938 45.13623047 C9.52542997 41.48322189 8.16752076 37.83115709 6.80664062 34.18017578 C5.37184699 30.3295083 3.94505835 26.47597663 2.52502441 22.61984253 C2.00565829 21.21345204 1.48346716 19.80810139 0.95837402 18.40383911 C0.23286196 16.46204283 -0.48246188 14.5167859 -1.1953125 12.5703125 C-1.59621094 11.48766113 -1.99710937 10.40500977 -2.41015625 9.28955078 C-3.23279319 6.46102551 -3.51507668 4.2987549 -3.2578125 1.375 C-2.2578125 0.375 -2.2578125 0.375 0 0 Z M10.7421875 21.375 C11.7421875 23.375 11.7421875 23.375 11.7421875 23.375 Z M11.7421875 23.375 C13.04418968 29.82685695 14.82642897 35.81646334 17.1484375 41.96875 C17.47380493 42.8414856 17.79917236 43.71422119 18.13439941 44.61340332 C18.81723686 46.43968028 19.50310706 48.26482597 20.19189453 50.08886719 C21.24844699 52.89160467 22.29072925 55.69937845 23.33203125 58.5078125 C23.99915268 60.28677631 24.66709184 62.06543373 25.3359375 63.84375 C25.64744751 64.6853064 25.95895752 65.52686279 26.27990723 66.3939209 C27.58233014 70.63066549 27.58233014 70.63066549 30.7421875 73.375 C32.52778084 72.66682972 32.52778084 72.66682972 34.4375 71.50390625 C35.51064453 70.88999023 35.51064453 70.88999023 36.60546875 70.26367188 C37.35183594 69.82603516 38.09820312 69.38839844 38.8671875 68.9375 C39.62128906 68.50373047 40.37539063 68.06996094 41.15234375 67.62304688 C43.01975884 66.54751034 44.88151447 65.46215861 46.7421875 64.375 C46.7421875 60.37666512 45.38404538 59.56341982 42.6796875 56.6875 C41.85210937 55.79546875 41.02453125 54.9034375 40.171875 53.984375 C39.37007813 53.12328125 38.56828125 52.2621875 37.7421875 51.375 C36.58994274 50.06812499 35.44348583 48.7561086 34.3046875 47.4375 C30.66251879 43.25449881 26.92068263 39.16487729 23.1796875 35.0703125 C20.43724904 32.03780844 17.76323058 28.95267093 15.1171875 25.8359375 C13.78583844 24.25315153 13.78583844 24.25315153 11.7421875 23.375 Z " fill="#E4B95B" transform="translate(333.2578125,88.625)"/>
<path d="M0 0 C1.86233295 4.91405501 2.59588578 9.56489812 3.125 14.75 C3.20919189 15.5433374 3.29338379 16.3366748 3.38012695 17.15405273 C3.94943525 22.79810714 4.27024406 28.32487482 4 34 C3.67 34.33 3.34 34.66 3 35 C-6.46772831 34.79124257 -15.90641161 33.47807416 -25.28125 32.22265625 C-26.57897339 32.05124619 -27.87669678 31.87983612 -29.21374512 31.70323181 C-31.92999322 31.34381524 -34.64579671 30.98124548 -37.36132812 30.61645508 C-40.82781332 30.15116124 -44.2954553 29.69519394 -47.7634964 29.24166203 C-51.10348521 28.80332668 -54.44229202 28.35627596 -57.78125 27.91015625 C-59.01879028 27.74862564 -60.25633057 27.58709503 -61.53137207 27.42066956 C-62.68697632 27.26388229 -63.84258057 27.10709503 -65.03320312 26.94555664 C-66.04354614 26.81089493 -67.05388916 26.67623322 -68.09484863 26.53749084 C-71.23372514 25.9567578 -74.05347999 25.23620309 -77 24 C-77.33 23.01 -77.66 22.02 -78 21 C-75.5340905 17.30113575 -74.42459846 17.28952756 -70.20849609 16.22241211 C-68.99318207 15.90876205 -67.77786804 15.595112 -66.52572632 15.2719574 C-65.19169157 14.94017203 -63.85759366 14.60864054 -62.5234375 14.27734375 C-61.15514774 13.92870954 -59.78711905 13.57904925 -58.41934204 13.22840881 C-54.81149734 12.30647533 -51.20025276 11.39861491 -47.58813477 10.49359131 C-43.93811365 9.57645556 -40.29148 8.64605944 -36.64453125 7.71679688 C-30.13072024 6.05919621 -23.61469171 4.41082205 -17.09442139 2.77877808 C-15.21468263 2.30570116 -13.33635608 1.82689873 -11.46075439 1.337677 C-7.52246614 0.31489346 -4.08113365 -0.20405668 0 0 Z M-12.6550293 9.1015625 C-13.59577805 9.34181152 -14.53652679 9.58206055 -15.50578308 9.82958984 C-16.51836685 10.0920752 -17.53095062 10.35456055 -18.57421875 10.625 C-20.13267265 11.02452881 -20.13267265 11.02452881 -21.72261047 11.43212891 C-25.04511572 12.28472009 -28.36631036 13.14229984 -31.6875 14 C-33.93806659 14.57845368 -36.18871663 15.15658279 -38.43945312 15.734375 C-43.96060977 17.15248324 -49.48069821 18.57469078 -55 20 C-55 20.33 -55 20.66 -55 21 C-48.72036111 21.86102568 -42.43975905 22.71474167 -36.15844727 23.56347656 C-34.02345495 23.85282442 -31.88868537 24.14382089 -29.75415039 24.43652344 C-26.67912504 24.85789722 -23.60333719 25.27325981 -20.52734375 25.6875 C-19.57915268 25.81874268 -18.63096161 25.94998535 -17.65403748 26.08520508 C-16.75363235 26.20532959 -15.85322723 26.3254541 -14.92553711 26.44921875 C-13.74972328 26.60910278 -13.74972328 26.60910278 -12.55015564 26.7722168 C-9.37849216 27.05551388 -6.18429057 27 -3 27 C-3.66 20.73 -4.32 14.46 -5 8 C-7.85308363 8 -9.91116546 8.39536698 -12.6550293 9.1015625 Z " fill="#E4B95B" transform="translate(417,60)"/>
<path d="M0 0 C3.83200412 0.15749784 7.07365324 0.75476159 10.78291321 1.70372009 C11.75986145 1.9500267 11.75986145 1.9500267 12.75654602 2.2013092 C14.8862002 2.74040632 17.01259824 3.29130293 19.13911438 3.84263611 C20.62630586 4.22204836 22.11366947 4.60078647 23.60119629 4.97888184 C26.70654463 5.76996899 29.81044337 6.5664298 32.9132843 7.36729431 C36.89394805 8.39468097 40.87692058 9.41273419 44.86085987 10.42733669 C48.66274857 11.39596626 52.46348248 12.36908906 56.26411438 13.34263611 C56.99006113 13.52821012 57.71600788 13.71378414 58.46395302 13.90498161 C60.5110248 14.42916637 62.55724931 14.95652827 64.60322571 15.48497009 C65.76791885 15.78475266 66.932612 16.08453522 68.13259888 16.3934021 C70.86958313 17.15904236 70.86958313 17.15904236 72.86958313 18.15904236 C72.86958313 19.80904236 72.86958313 21.45904236 72.86958313 23.15904236 C69.06471547 24.8527936 65.56566879 25.64181138 61.44624329 26.21226501 C60.16786591 26.39230072 58.88948853 26.57233643 57.57237244 26.75782776 C56.18450106 26.94652992 54.79659113 27.13494865 53.40864563 27.32310486 C51.97518646 27.5216052 50.54178681 27.72053579 49.10844421 27.9198761 C46.10814392 28.33570218 43.10727608 28.7470664 40.10591125 29.15513611 C36.27294876 29.67652465 32.44143767 30.20779902 28.61028481 30.74230385 C25.65097133 31.15425053 22.69102473 31.56148881 19.73086166 31.96728134 C18.31859298 32.16133601 16.9065024 32.35669176 15.4946022 32.55340958 C13.51428238 32.82848297 11.53301004 33.09667186 9.55171204 33.36460876 C8.42761932 33.51846039 7.30352661 33.67231201 6.14537048 33.83082581 C2.68915106 34.1771207 -0.65931825 34.28282852 -4.13041687 34.15904236 C-5.66143743 32.6280218 -5.26005093 31.2394045 -5.26322937 29.10826111 C-5.26524353 28.26948425 -5.26725769 27.4307074 -5.26933289 26.56651306 C-5.2647406 25.66892273 -5.26014832 24.7713324 -5.25541687 23.84654236 C-5.25275818 22.94186218 -5.25009949 22.03718201 -5.24736023 21.10508728 C-5.10036113 0.25912634 -5.10036113 0.25912634 0 0 Z M2.86958313 8.15904236 C1.54261117 14.13041619 1.79728064 20.08221752 1.86958313 26.15904236 C12.61597603 25.59100334 23.11794608 24.22279129 33.74458313 22.59654236 C35.31872801 22.35972267 36.8929465 22.12339182 38.46723938 21.88755798 C42.26888967 21.31699623 46.06949368 20.73990494 49.86958313 20.15904236 C47.20676544 18.74235918 44.71495129 17.7451325 41.79121399 17.01402283 C41.00036911 16.81396637 40.20952423 16.61390991 39.39471436 16.40779114 C38.54981949 16.19937592 37.70492462 15.99096069 36.83442688 15.77622986 C35.95935989 15.5570993 35.08429291 15.33796875 34.18270874 15.11219788 C32.33663101 14.6510927 30.48997121 14.19231245 28.64277649 13.73570251 C25.81249158 13.03538062 22.98451026 12.3262842 20.1566925 11.61607361 C18.36190115 11.1689348 16.56698343 10.72230285 14.77192688 10.27622986 C13.92500778 10.06376617 13.07808868 9.85130249 12.20550537 9.63240051 C11.41781265 9.43864838 10.63011993 9.24489624 9.81855774 9.04527283 C9.12668869 8.87365631 8.43481964 8.70203979 7.72198486 8.52522278 C5.69378304 8.06207935 5.69378304 8.06207935 2.86958313 8.15904236 Z " fill="#E4B95B" transform="translate(140.1304168701172,60.84095764160156)"/>
</svg>
